<svg width="82" height="82" viewBox="0 0 82 82" fill="none" xmlns="http://www.w3.org/2000/svg">
<path d="M41.045 4.65241C35.5254 4.65241 31.0508 9.1274 31.0508 14.647H51.0386C51.0386 9.1274 46.5643 4.65241 41.045 4.65241Z" stroke="#37121A" stroke-width="2" stroke-miterlimit="10" stroke-linecap="round" stroke-linejoin="round"/>
<path d="M50.0605 27.2207H32.0059V14.6469H50.0605V27.2207Z" stroke="#37121A" stroke-width="2" stroke-miterlimit="10" stroke-linecap="round" stroke-linejoin="round"/>
<path d="M29.4072 14.647H52.6825" stroke="#37121A" stroke-width="2" stroke-miterlimit="10" stroke-linecap="round" stroke-linejoin="round"/>
<path d="M41.0439 4.6521V1.42805" stroke="#37121A" stroke-width="2" stroke-miterlimit="10" stroke-linecap="round" stroke-linejoin="round"/>
<path d="M54.0127 33.9705H28.0762V27.2206H54.0127V33.9705Z" stroke="#37121A" stroke-width="2" stroke-miterlimit="10" stroke-linecap="round" stroke-linejoin="round"/>
<path d="M58.1858 80.74H23.9033V77.515C23.9033 75.2886 25.7081 73.4838 27.9345 73.4838H54.1548C56.381 73.4838 58.1858 75.2886 58.1858 77.515V80.74Z" stroke="#37121A" stroke-width="2" stroke-miterlimit="10" stroke-linecap="round" stroke-linejoin="round"/>
<path d="M54.6453 73.4839H27.4434L32.8092 33.9707H49.2797L54.6453 73.4839Z" stroke="#37121A" stroke-width="2" stroke-miterlimit="10" stroke-linecap="round" stroke-linejoin="round"/>
<path d="M46.4878 34.0953L30.7871 49.7959" stroke="#37121A" stroke-width="2" stroke-miterlimit="10" stroke-linecap="round" stroke-linejoin="round"/>
<path d="M40.2545 53.2824L28.6904 64.8464" stroke="#37121A" stroke-width="2" stroke-miterlimit="10" stroke-linecap="round" stroke-linejoin="round"/>
<path d="M51.942 57.2609L36.085 73.1179" stroke="#37121A" stroke-width="2" stroke-miterlimit="10" stroke-linecap="round" stroke-linejoin="round"/>
<path d="M80.7 72.7081C77.0855 76.3226 71.2251 76.3226 67.6107 72.7081C63.9962 76.3226 58.136 76.3226 54.5215 72.7081" stroke="#37121A" stroke-width="2" stroke-miterlimit="10" stroke-linecap="round" stroke-linejoin="round"/>
<path d="M1.38867 72.7081C5.00316 76.3226 10.8635 76.3226 14.478 72.7081C18.0925 76.3226 23.9527 76.3226 27.5672 72.7081" stroke="#37121A" stroke-width="2" stroke-miterlimit="10" stroke-linecap="round" stroke-linejoin="round"/>
<path d="M61.2754 15.7454L80.7098 10.5379" stroke="#37121A" stroke-width="2" stroke-miterlimit="10" stroke-linecap="round" stroke-linejoin="round"/>
<path d="M61.2754 26.1221L80.7098 31.3296" stroke="#37121A" stroke-width="2" stroke-miterlimit="10" stroke-linecap="round" stroke-linejoin="round"/>
<path d="M20.8143 15.7454L1.37988 10.5379" stroke="#37121A" stroke-width="2" stroke-miterlimit="10" stroke-linecap="round" stroke-linejoin="round"/>
<path d="M20.8143 26.1221L1.37988 31.3296" stroke="#37121A" stroke-width="2" stroke-miterlimit="10" stroke-linecap="round" stroke-linejoin="round"/>
</svg>
