<svg width="318" height="63" viewBox="0 0 318 63" fill="none" xmlns="http://www.w3.org/2000/svg">
<g clip-path="url(#clip0_220_2)">
<path d="M55.8254 61.5844V9.64258H66.3828V61.5844H55.8254Z" fill="white"/>
<path d="M112.88 61.5844H81.3508V9.64258H91.8023V59.7678H112.876V61.5844H112.88Z" fill="white"/>
<path d="M144.589 46.7652C141.937 47.9393 137.849 47.967 135.473 47.5926C134.999 47.5233 134.239 47.3985 133.378 47.2413L139.276 61.58H150.782L144.589 46.7652ZM133.801 26.6948C133.792 25.0584 134.05 23.5793 134.382 22.3497L128.811 9.00488L109.307 58.0854H111.016L117.116 42.8269L117.434 41.9764L124.612 24.06L130.017 38.8979C130.795 37.9411 131.707 36.6144 132.531 34.9873C133.88 32.2925 133.82 28.9597 133.801 26.6902V26.6948Z" fill="white"/>
<path d="M44.3473 9.64258L23.3339 61.5844L0 9.64258H11.9294L27.3809 44.6387L41.442 9.64258H44.3473Z" fill="white"/>
<path d="M155.772 23.7683C155.473 19.1552 150.436 16.0905 146.426 18.5912C144.419 19.8347 143.429 22.3215 143.857 24.3646C145.036 30.8175 155.768 31.3583 155.768 23.7683H155.772Z" fill="white"/>
<path d="M155.74 23.4452C155.404 19.7427 152.31 17.6672 149.35 17.6996C146.619 17.7273 144.009 19.567 143.765 23.1725C143.548 27.3327 147.361 29.5884 150.749 29.3388C153.567 29.1308 156.09 27.1431 155.736 23.4452H155.74ZM147.595 26.6763C139.478 24.0045 149.907 14.8661 153.282 21.3051C156.606 28.1693 149.119 30.8179 147.595 26.6763Z" fill="url(#paint0_radial_220_2)"/>
<path d="M160.842 9.25412C160.354 5.33895 161.169 9.78107 160.082 13.0075C158.972 16.2524 156.472 18.4989 156.283 18.3048C156.095 17.9257 161.532 13.724 159.424 5.27424C159.295 4.75653 159.364 4.93218 159.364 5.82893C159.364 12.8365 153.328 16.1045 154.497 14.9859C159.23 10.4513 159.626 3.93837 157.435 0.739674C155.828 -2.21403 160.082 4.25731 155.565 10.308C154.11 12.2864 152.227 13.1647 152.794 12.5961C155.731 10.2156 157.241 6.52691 157.149 2.86597C155.823 8.18172 150.257 9.05073 150.372 13.5899C150.372 14.2509 148.977 12.3049 151.951 8.97215C152.945 7.72873 153.125 7.60393 153.369 6.86897C153.756 5.96298 153.613 4.70569 153.079 3.87828C153.908 6.65634 150.524 8.08465 149.032 11.5468C148.935 11.6901 148.788 11.5884 148.825 11.4636C150.758 6.61936 150.547 7.21564 148.926 10.1231C147.379 12.9012 145.45 18.388 146.481 14.0383C146.73 12.9936 147.034 11.9767 147.467 10.9644C144.663 15.3141 145.068 17.6438 144.672 17.6438C144.276 17.6438 144.741 14.5976 145.187 13.2294C144.234 14.9581 143.452 17.9812 143.567 19.9503C146.955 14.9119 153.793 15.5591 156.403 21.5358C159.074 18.7069 161.284 13.9412 160.837 9.24487L160.842 9.25412Z" fill="white"/>
<path d="M160.266 20.8004C161.04 18.7758 160.234 16.3768 162.711 13.4785C160.911 14.3799 160.713 16.5663 159.981 18.0362C159.083 20.0007 156.928 21.54 156.408 21.54C158.365 26.4582 154.594 31.2932 148.829 30.304C143.553 29.3472 141.108 23.8373 143.571 19.9545C143.235 17.9669 143.401 15.9145 144.165 13.9361C142.646 16.6541 141.96 19.4506 142.397 22.5338C142.397 23.2271 141.605 21.7896 141.845 19.6494C142.089 17.426 142.775 14.1765 141.762 18.2488C141.145 21.919 141.334 23.9991 142.687 28.0622C143.705 31.0575 143.079 30.6877 143.079 30.5351C143.019 30.0821 142.821 29.717 142.628 29.2963C142.407 28.8249 142.232 28.4458 141.951 27.2348C139.948 19.7696 141.628 21.5169 140.906 17.1533C141.173 20.1024 139.612 20.107 139.612 24.7202C139.612 28.4967 139.962 28.8803 139.962 29.4812C139.962 30.5999 137.973 25.0437 140.086 19.1733C139.257 20.6848 138.627 22.6262 138.484 24.3504C138.484 24.5954 137.591 24.4475 138.442 20.1671C136.582 22.654 136.909 25.3442 137.416 28.1454C138.636 35.1483 135.859 37.1683 136.246 36.3501C138.392 31.8248 135.496 28.7833 135.979 22.7603C135.519 24.9189 135.445 26.7309 135.588 28.0807C136.352 35.3239 133.037 39.4702 132.816 39.2899C132.798 39.2761 133.866 37.3901 134.46 35.2962C134.731 34.344 135.012 33.2069 134.86 32.4396C134.073 35.6521 133.691 37.5242 130.334 40.6998C128.668 42.2899 127.006 42.2621 126.803 42.0588L125.302 43.3761C127.089 43.1496 132.595 44.9015 135.261 45.8491C130.339 43.3761 128.834 43.5425 128.834 43.1912C128.834 42.2344 136.067 45.4932 136.311 45.581C141.053 47.2959 131.403 43.1265 131.403 42.9231C131.522 42.6782 132.093 42.9416 132.448 42.9416C136.067 43.6073 137.457 45.7151 140.395 46.1172C141.269 46.2651 140.51 46.4131 136.555 44.1157C135.008 43.219 132.365 42.4655 132.158 42.4655C129.197 42.1605 134.289 41.5734 137.374 42.7336C139.437 43.4871 141.458 44.6242 144.501 44.3422C146.467 44.2128 144.446 44.3191 143.208 43.9909C138.64 42.4609 137.89 41.162 133.475 41.2683C133.35 41.2683 133.336 41.1204 133.456 41.0603C138.576 40.1913 141.108 43.0526 145.307 42.8538C141.928 42.1743 140.998 41.5364 140.726 41.5364C136.301 39.951 135.777 40.122 135.777 39.9093C135.777 39.6274 137.549 39.5211 138.53 39.6829C141.035 40.0526 143.714 42.7013 148.88 41.5364C145.795 41.9247 142.641 41.1158 139.308 38.4441C138.976 37.7784 141.495 39.4564 141.937 39.4564L141.955 39.4748C144.736 40.5056 147.052 41.1666 150.151 40.2375C146.647 40.122 143.898 38.102 144.115 37.8847C144.299 37.5103 147.867 40.783 153.42 38.8138C149.538 39.7892 145.459 37.6305 145.74 37.3485C145.864 36.9695 148.608 39.1189 153.07 37.783C154.225 37.4502 152.955 37.8616 151.652 37.9679C148.406 38.236 145.413 36.6598 145.533 36.4194C145.648 36.1883 146.67 36.9325 149.538 36.9556C150.759 36.9649 148.802 37.0897 146.642 36.0265C146.518 35.9433 146.56 35.8185 146.725 35.8185C151.205 37.3624 155.459 35.6891 157.858 33.0359C154.027 36.4472 145.413 33.965 147.117 33.965C154.534 35.3748 159.806 31.284 160.22 26.2964C159.548 28.1777 158.581 29.8233 157.121 31.1222C153.664 34.2747 149.847 32.8602 148.392 32.6707C146.191 32.4488 145.33 33.3086 145.187 33.022C145.128 32.8417 145.786 32.6522 145.966 32.6106C147.181 32.2038 148.489 32.2177 149.764 32.2177C154.295 32.2177 154.815 31.4735 155.188 31.3302C156.214 30.8171 155.312 31.2193 155.105 31.2886C155.096 31.2886 155.017 31.3117 155.004 31.3302C153.963 31.7046 152.006 31.7693 152.006 31.4735C152.006 31.1499 154.483 31.5844 156.606 28.9589C155.731 29.7771 154.709 30.3179 153.585 30.6692C148.074 31.8987 161.597 28.4412 161.597 19.8251C160.948 23.0746 157.416 24.2256 157.283 23.8234C157.14 23.5368 159.331 23.4213 160.28 20.7911L160.266 20.8004Z" fill="white"/>
<path d="M114.054 46.4739C114.054 46.4739 115.15 43.1088 120.279 42.5264C123.681 42.1381 128.539 42.2953 130.358 40.9363C132.084 39.6467 130.629 41.9255 130.629 41.9255C130.629 41.9255 130.823 42.9794 128.212 43.2799C125.601 43.5803 117.148 43.1412 115.804 46.2752C114.851 48.4893 114.054 46.4739 114.054 46.4739Z" fill="white"/>
<path d="M152.444 23.191C152.301 22.701 152.089 22.2342 151.827 21.7997C151.532 21.3097 151.081 20.9353 150.533 20.7874C149.773 20.584 148.958 20.6164 148.235 20.9029C145.045 22.0585 146.228 26.2002 148.829 25.3774C148.553 28.1971 153.811 27.7256 152.444 23.191Z" fill="url(#paint1_radial_220_2)"/>
<path d="M194.926 34.5521C192.638 33.0683 190.138 31.7416 187.431 30.5768C184.719 29.412 182.219 28.2286 179.935 27.0268C177.647 25.825 175.727 24.503 174.18 23.0515C172.628 21.6047 171.855 19.8205 171.855 17.6988C171.855 16.2844 172.154 15.0502 172.753 13.987C173.351 12.9285 174.125 12.0641 175.078 11.3893C176.026 10.719 177.099 10.2059 178.296 9.85C179.493 9.4987 180.722 9.31842 181.993 9.31842C184.737 9.31842 187.642 9.93782 190.704 11.172C193.766 12.4108 196.459 14.5094 198.78 17.4769L199.204 13.8715C197.302 12.8823 195.631 12.0549 194.19 11.38C192.744 10.7098 191.39 10.1597 190.124 9.73906C188.858 9.3138 187.592 9.01335 186.321 8.8377C185.055 8.66204 183.683 8.57422 182.205 8.57422C180.161 8.57422 178.121 8.89316 176.081 9.52643C174.042 10.1643 172.209 11.098 170.589 12.3368C168.968 13.5756 167.651 15.0779 166.629 16.8437C165.607 18.6094 165.101 20.6248 165.101 22.8851C165.101 26.3473 165.874 29.2086 167.426 31.4689C168.973 33.7339 170.911 35.6383 173.231 37.1914C175.557 38.7446 178.052 40.0527 180.727 41.1112C183.402 42.1698 185.902 43.2329 188.223 44.2914C190.548 45.35 192.481 46.5379 194.028 47.8414C195.575 49.1496 196.349 50.7951 196.349 52.7689C196.349 54.2527 195.994 55.5238 195.295 56.587C194.59 57.6455 193.692 58.5145 192.601 59.1848C191.51 59.8596 190.294 60.3496 188.959 60.6686C187.624 60.9875 186.321 61.1447 185.055 61.1447C183.296 61.1447 181.344 60.9505 179.194 60.5623C177.048 60.174 175.004 59.5546 173.07 58.7087C171.132 57.8582 169.392 56.7673 167.845 55.4222C166.293 54.0817 165.206 52.4546 164.571 50.5455V55.9491C165.98 56.6563 167.545 57.4005 169.267 58.1771C170.994 58.9537 172.753 59.6285 174.548 60.1925C176.344 60.7564 178.121 61.2371 179.88 61.6254C181.639 62.0137 183.259 62.2078 184.737 62.2078C187.27 62.2078 189.645 61.9582 191.864 61.4636C194.079 60.969 196.017 60.137 197.67 58.9722C199.323 57.8073 200.626 56.2681 201.575 54.359C202.523 52.45 203.002 50.0833 203.002 47.259C203.002 44.2914 202.228 41.8 200.677 39.7846C199.125 37.7692 197.21 36.022 194.922 34.5382L194.926 34.5521Z" fill="white"/>
<path d="M210.148 61.5836H211.851L219.13 43.3621H234.02L241.507 61.5836H253.012L231.051 9.00391L210.143 61.5836H210.148ZM233.261 41.6519H219.798L226.847 24.059L233.261 41.6519Z" fill="white"/>
<path d="M309.39 9.64225L309.335 9.61914L293.045 47.1206L273.455 9.64225H263.408V61.5841H265.112V16.4279L288.658 61.4778L293.842 49.552L293.86 49.515L307.544 18.0458V61.5841H318V9.64225H309.39Z" fill="white"/>
</g>
<defs>
<radialGradient id="paint0_radial_220_2" cx="0" cy="0" r="1" gradientUnits="userSpaceOnUse" gradientTransform="translate(142.692 33.3418) scale(17.6201 17.6899)">
<stop/>
<stop offset="0.08" stop-color="#051B08"/>
<stop offset="0.26" stop-color="#0E5118"/>
<stop offset="0.42" stop-color="#167C24"/>
<stop offset="0.57" stop-color="#1C9A2D"/>
<stop offset="0.7" stop-color="#1FAD33"/>
<stop offset="0.79" stop-color="#21B435"/>
<stop offset="1" stop-color="#758626"/>
</radialGradient>
<radialGradient id="paint1_radial_220_2" cx="0" cy="0" r="1" gradientUnits="userSpaceOnUse" gradientTransform="translate(149.548 23.4961) scale(4.99552 5.01529)">
<stop offset="0.36" stop-color="#184189"/>
<stop offset="0.45" stop-color="#173E85" stop-opacity="0.96"/>
<stop offset="0.57" stop-color="#17387C" stop-opacity="0.85"/>
<stop offset="0.69" stop-color="#172D6D" stop-opacity="0.68"/>
<stop offset="0.82" stop-color="#161E58" stop-opacity="0.43"/>
<stop offset="0.96" stop-color="#150A3E" stop-opacity="0.11"/>
<stop offset="1" stop-color="#150435" stop-opacity="0"/>
</radialGradient>
<clipPath id="clip0_220_2">
<rect width="318" height="62.2174" fill="white"/>
</clipPath>
</defs>
</svg>
