<svg width="82" height="82" viewBox="0 0 82 82" fill="none" xmlns="http://www.w3.org/2000/svg">
<path d="M80.7796 33.3064H1.76706C1.67943 33.3064 1.6084 33.2354 1.6084 33.1477V26.4778C1.6084 26.3902 1.67943 26.3191 1.76706 26.3191H80.7796C80.8673 26.3191 80.9383 26.3902 80.9383 26.4778V33.1477C80.9383 33.2354 80.8673 33.3064 80.7796 33.3064Z" stroke="#37121A" stroke-width="2" stroke-miterlimit="10" stroke-linecap="round" stroke-linejoin="round"/>
<path d="M13.8523 33.3064V38.4654C13.8523 38.8565 13.5355 39.1733 13.1443 39.1733H4.49029C4.09923 39.1733 3.78223 38.8565 3.78223 38.4654V33.3064" stroke="#37121A" stroke-width="2" stroke-miterlimit="10" stroke-linecap="round" stroke-linejoin="round"/>
<path d="M5.71777 39.1734V61.2579C5.71777 61.6482 6.03398 61.9644 6.42424 61.9644H11.2094C11.5997 61.9644 11.9159 61.6482 11.9159 61.2579V39.1734" stroke="#37121A" stroke-width="2" stroke-miterlimit="10" stroke-linecap="round" stroke-linejoin="round"/>
<path d="M68.6943 33.3064V38.4654C68.6943 38.8565 69.0112 39.1733 69.4024 39.1733H78.0564C78.4474 39.1733 78.7644 38.8565 78.7644 38.4654V33.3064" stroke="#37121A" stroke-width="2" stroke-miterlimit="10" stroke-linecap="round" stroke-linejoin="round"/>
<path d="M76.828 49.7729V61.258C76.828 61.6482 76.5118 61.9644 76.1215 61.9644H71.3364C70.9461 61.9644 70.6299 61.6482 70.6299 61.258V39.1734" stroke="#37121A" stroke-width="2" stroke-miterlimit="10" stroke-linecap="round" stroke-linejoin="round"/>
<path d="M76.8271 39.1733V44.1863" stroke="#37121A" stroke-width="2" stroke-miterlimit="10" stroke-linecap="round" stroke-linejoin="round"/>
<path d="M25.7145 18.2798H1.76674C1.67927 18.2798 1.6084 18.2086 1.6084 18.1208V14.4483C1.6084 14.3605 1.67927 14.2893 1.76674 14.2893H80.7798C80.8673 14.2893 80.9383 14.3605 80.9383 14.4483V18.1208C80.9383 18.2086 80.8673 18.2798 80.7798 18.2798H31.3011" stroke="#37121A" stroke-width="2" stroke-miterlimit="10" stroke-linecap="round" stroke-linejoin="round"/>
<path d="M9.48791 26.3193H5.41895V18.2799H9.48791V26.3193Z" stroke="#37121A" stroke-width="2" stroke-miterlimit="10" stroke-linecap="round" stroke-linejoin="round"/>
<path d="M77.1266 26.3193H73.0576V18.2799H77.1266V26.3193Z" stroke="#37121A" stroke-width="2" stroke-miterlimit="10" stroke-linecap="round" stroke-linejoin="round"/>
<path d="M35.9414 22.2996H46.6043" stroke="#37121A" stroke-width="2" stroke-miterlimit="10" stroke-linecap="round" stroke-linejoin="round"/>
<path d="M41.2734 80.749V33.3064" stroke="#37121A" stroke-width="2" stroke-miterlimit="10" stroke-linecap="round" stroke-linejoin="round"/>
<path d="M41.2734 14.2893V1.41903" stroke="#37121A" stroke-width="2" stroke-miterlimit="10" stroke-linecap="round" stroke-linejoin="round"/>
<path d="M58.5534 14.2893L55.2992 1.58934C55.2737 1.4891 55.1834 1.41903 55.0799 1.41903H27.4655C27.3622 1.41903 27.2717 1.4891 27.2461 1.58934L23.9922 14.2893" stroke="#37121A" stroke-width="2" stroke-miterlimit="10" stroke-linecap="round" stroke-linejoin="round"/>
<path d="M19.1199 33.3064L7.03655 80.4662C6.99968 80.6095 7.10806 80.749 7.25602 80.749H75.2904C75.4384 80.749 75.5468 80.6095 75.5099 80.4662L63.4265 33.3064" stroke="#37121A" stroke-width="2" stroke-miterlimit="10" stroke-linecap="round" stroke-linejoin="round"/>
<path d="M45.8124 14.2893L45.3115 1.41903" stroke="#37121A" stroke-width="2" stroke-miterlimit="10" stroke-linecap="round" stroke-linejoin="round"/>
<path d="M37.2343 1.41903L36.7334 14.2893" stroke="#37121A" stroke-width="2" stroke-miterlimit="10" stroke-linecap="round" stroke-linejoin="round"/>
<path d="M35.9941 33.3064L34.1484 80.749" stroke="#37121A" stroke-width="2" stroke-miterlimit="10" stroke-linecap="round" stroke-linejoin="round"/>
<path d="M46.8244 40.3152L46.5518 33.3062" stroke="#37121A" stroke-width="2" stroke-miterlimit="10" stroke-linecap="round" stroke-linejoin="round"/>
<path d="M48.3983 80.749L47.0459 45.9882" stroke="#37121A" stroke-width="2" stroke-miterlimit="10" stroke-linecap="round" stroke-linejoin="round"/>
<path d="M59.5625 26.3193V18.2799" stroke="#37121A" stroke-width="2" stroke-miterlimit="10" stroke-linecap="round" stroke-linejoin="round"/>
<path d="M22.9844 18.2799V26.3193" stroke="#37121A" stroke-width="2" stroke-miterlimit="10" stroke-linecap="round" stroke-linejoin="round"/>
</svg>
