<svg width="74" height="72" viewBox="0 0 74 72" fill="none" xmlns="http://www.w3.org/2000/svg">
<path d="M40.7035 55.7601V14.5724H29.3335C28.5808 14.5724 27.9707 15.1826 27.9707 15.9351V62.3391C32.1481 60.5595 36.4327 58.394 40.7035 55.7601Z" stroke="#37121A" stroke-width="2" stroke-miterlimit="10" stroke-linecap="round" stroke-linejoin="round"/>
<path d="M27.9711 62.3392V28.0969H16.6011C15.8484 28.0969 15.2383 28.707 15.2383 29.4597V66.7869C19.2672 65.6698 23.5593 64.2188 27.9711 62.3392Z" stroke="#37121A" stroke-width="2" stroke-miterlimit="10" stroke-linecap="round" stroke-linejoin="round"/>
<path d="M15.2367 66.7869V41.6215H3.86658C3.11405 41.6215 2.50391 42.2315 2.50391 42.9843V69.4849C6.24588 68.931 10.5636 68.0829 15.2367 66.7869Z" stroke="#37121A" stroke-width="2" stroke-miterlimit="10" stroke-linecap="round" stroke-linejoin="round"/>
<path d="M44.2746 60.403C57.8871 53.7884 66.0801 46.2122 67.7621 44.5794C67.9459 44.401 68.2361 44.3985 68.4238 44.5726L72.1298 48.0112C72.4378 48.2968 72.9384 48.0784 72.9384 47.6584V32.8666C72.9384 32.6008 72.7228 32.3852 72.4571 32.3852H58.2472C57.8224 32.3852 57.6058 32.8956 57.901 33.201L61.7607 37.1948C61.9341 37.374 61.9421 37.6569 61.7789 37.8452C42.3554 60.2596 17.3766 67.3314 2.18625 69.5321C1.85398 69.5803 1.6084 69.8654 1.6084 70.2011C1.6084 70.5836 1.92589 70.8916 2.30811 70.878C17.003 70.3541 29.5663 66.8309 39.6582 62.5106" stroke="#37121A" stroke-width="2" stroke-miterlimit="10" stroke-linecap="round" stroke-linejoin="round"/>
<path d="M53.436 22.4574V2.41084C53.436 1.65802 52.8258 1.04802 52.0731 1.04802H42.0659C41.3133 1.04802 40.7031 1.65802 40.7031 2.41084V55.7603C45.0031 53.1085 49.2885 49.9825 53.436 46.2963V27.481" stroke="#37121A" stroke-width="2" stroke-miterlimit="10" stroke-linecap="round" stroke-linejoin="round"/>
</svg>
