<svg width="225" height="72" viewBox="0 0 225 72" fill="none" xmlns="http://www.w3.org/2000/svg">
<path d="M73.882 0.995302H82.3963C81.716 1.28285 81.3092 1.80185 81.176 2.53826C81.1339 2.7697 81.1199 2.99412 81.1199 3.20452C81.1199 3.70949 81.2251 4.20044 81.4425 4.68436L92.7481 35.1155L104.138 3.8708C104.446 3.16946 104.538 2.58734 104.411 2.11043C104.285 1.63352 103.871 1.2618 103.177 0.988281H108.29C107.981 1.21972 107.736 1.40911 107.56 1.55639C107.385 1.70367 107.231 1.87198 107.098 2.06835C106.964 2.26473 106.866 2.40499 106.81 2.50318C106.754 2.60137 106.663 2.79775 106.536 3.09932C106.41 3.4009 106.298 3.65339 106.2 3.8708C105.912 4.53006 104.566 8.13496 102.174 14.6995C99.7825 21.257 97.4541 27.6603 95.1817 33.8952L91.8083 43.2511C82.4875 18.5078 77.508 5.3857 76.8697 3.8708C76.5962 3.16946 76.2666 2.6154 75.8808 2.20161C75.4951 1.78782 74.8218 1.38104 73.875 0.995302H73.882Z" fill="white"/>
<path d="M123.047 41.4775C124.071 40.9725 124.59 40.0818 124.59 38.8054V3.69626C124.59 2.45489 124.078 1.55717 123.047 0.996094H129.878C128.854 1.55717 128.335 2.4619 128.335 3.69626V38.8054C128.335 40.0818 128.847 40.9725 129.878 41.4775H123.047Z" fill="white"/>
<path d="M147.266 5.70208V0.996094H177.199V5.70208C176.869 5.11997 176.42 4.59398 175.845 4.11707C175.277 3.64016 174.632 3.39469 173.91 3.37365C170.326 3.17727 167.078 3.0861 164.175 3.0861V38.8054C164.175 40.0818 164.687 40.9725 165.718 41.4775H158.859C159.904 40.9725 160.43 40.0818 160.43 38.8054V3.0861C159.111 3.0861 157.617 3.11416 155.955 3.15624C154.286 3.20533 152.953 3.24739 151.944 3.28947L150.464 3.37365C149.769 3.39469 149.138 3.64016 148.591 4.11707C148.037 4.59398 147.595 5.11997 147.266 5.70208Z" fill="white"/>
<path d="M193.731 0.996094H201.264C200.001 1.67639 199.37 2.57411 199.37 3.69626V29.0778C199.37 30.0036 199.44 30.8943 199.573 31.7499C199.707 32.5985 200.001 33.5383 200.443 34.5693C200.892 35.5932 201.474 36.4839 202.189 37.2274C202.905 37.9708 203.922 38.595 205.233 39.1C206.545 39.6049 208.06 39.8574 209.785 39.8574C211.51 39.8574 213.011 39.654 214.337 39.2472C215.662 38.8405 216.735 38.3144 217.549 37.6622C218.362 37.0099 219.036 36.2244 219.555 35.2987C220.081 34.3659 220.438 33.4331 220.635 32.4793C220.831 31.5325 220.929 30.5155 220.929 29.4285L220.81 3.69626C220.81 2.45489 220.298 1.55717 219.267 0.996094H224.73C223.706 1.55717 223.188 2.45489 223.188 3.69626L222.865 29.3092C222.844 31.5395 222.465 33.4892 221.715 35.1724C220.964 36.8557 219.954 38.1742 218.671 39.135C217.394 40.0958 215.978 40.8042 214.435 41.2601C212.892 41.7159 211.223 41.9474 209.413 41.9474C208.144 41.9474 206.881 41.8141 205.626 41.5406C204.371 41.2671 203.136 40.8112 201.909 40.159C200.688 39.5067 199.608 38.7002 198.683 37.7393C197.757 36.7785 197.013 35.5582 196.445 34.0713C195.877 32.5845 195.59 30.9223 195.59 29.0778V3.69626C195.59 2.57411 194.959 1.66938 193.703 0.996094H193.731Z" fill="white"/>
<path d="M102.344 71.5088C102.673 71.3265 102.842 71.0389 102.842 70.6391V59.2634C102.842 58.8426 102.673 58.548 102.344 58.3867H106.482C107.029 58.3867 107.534 58.4218 107.997 58.4989C108.459 58.5761 108.852 58.6743 109.182 58.8005C109.511 58.9267 109.799 59.074 110.058 59.2564C110.318 59.4387 110.521 59.6211 110.683 59.8034C110.837 59.9928 110.97 60.1962 111.068 60.4136C111.174 60.631 111.244 60.8414 111.286 61.0308C111.328 61.2271 111.349 61.4165 111.349 61.6129C111.349 62.1108 111.244 62.5597 111.04 62.9665C110.837 63.3803 110.57 63.7099 110.248 63.9624C109.918 64.2148 109.575 64.4182 109.217 64.5655C108.859 64.7128 108.502 64.797 108.151 64.825C108.452 64.8531 108.726 64.9302 108.978 65.0354C109.224 65.1406 109.441 65.2879 109.624 65.4702C109.806 65.6526 109.939 65.7858 110.016 65.884C110.094 65.9822 110.192 66.1155 110.311 66.2908C111.861 68.7175 112.857 70.1973 113.299 70.7303C113.411 70.8636 113.572 70.9898 113.783 71.1231C113.993 71.2493 114.168 71.3475 114.309 71.4106L114.533 71.5018L112.029 71.5369H111.994C111.665 71.5369 111.363 71.4527 111.068 71.2844C110.767 71.109 110.514 70.8916 110.318 70.6321C110.066 70.2674 109.806 69.8817 109.532 69.4609C109.266 69.0471 108.957 68.5632 108.614 68.0091C108.27 67.4551 108.046 67.0974 107.94 66.929C107.919 66.901 107.87 66.8098 107.779 66.6766C107.688 66.5363 107.632 66.4521 107.604 66.41C107.576 66.375 107.52 66.2908 107.442 66.1716C107.358 66.0524 107.302 65.9752 107.26 65.9331C107.218 65.8911 107.162 65.8279 107.085 65.7438C107.008 65.6596 106.938 65.5965 106.881 65.5614C106.825 65.5264 106.755 65.4843 106.671 65.4422C106.587 65.3931 106.503 65.3651 106.419 65.351C106.334 65.337 106.25 65.33 106.159 65.33L105.31 65.365V70.6321C105.31 71.0249 105.493 71.3194 105.85 71.5018H102.365L102.344 71.5088ZM105.289 64.3621C105.647 64.3902 105.935 64.3972 106.159 64.3972C106.503 64.3972 106.832 64.3481 107.141 64.2499C107.45 64.1517 107.737 63.9974 107.997 63.8011C108.263 63.6047 108.473 63.3242 108.628 62.9665C108.782 62.6088 108.866 62.202 108.866 61.7391C108.866 61.4937 108.824 61.2482 108.747 60.9887C108.663 60.7292 108.537 60.4697 108.368 60.2102C108.193 59.9507 107.94 59.7403 107.604 59.572C107.267 59.4107 106.874 59.3265 106.419 59.3265L105.296 59.3616V64.3551L105.289 64.3621Z" fill="white"/>
<path d="M120.406 71.5096C120.596 71.4044 120.736 71.2852 120.841 71.1589C120.939 71.0327 120.988 70.8574 120.988 70.647V59.2712C120.988 58.8785 120.792 58.5839 120.406 58.3945H128.17L128.226 60.0918C128.044 59.8463 127.84 59.671 127.616 59.5728C127.392 59.4746 127.09 59.4115 126.718 59.3904L123.443 59.3554V63.8019H126.354C126.487 63.8019 126.62 63.7458 126.76 63.6195C126.901 63.5003 126.999 63.374 127.048 63.2548V65.3098C126.999 65.1695 126.901 65.0432 126.76 64.924C126.62 64.8048 126.48 64.7487 126.354 64.7487H123.443V70.4085C123.955 70.4857 124.607 70.5207 125.414 70.5207C125.582 70.5207 125.764 70.5207 125.954 70.5137C126.017 70.5137 126.108 70.5137 126.227 70.5067C127.069 70.4786 127.637 70.4225 127.932 70.3314C128.395 70.1841 128.78 69.8544 129.089 69.3355L129.117 69.3004L128.71 71.5307H120.413L120.406 71.5096Z" fill="white"/>
<path d="M134.758 71.5101C135.024 71.3278 135.214 71.1735 135.34 71.0472C135.466 70.921 135.578 70.7597 135.67 70.5703C135.775 70.3529 136.28 69.1957 137.191 67.0917C138.096 64.9947 138.98 62.9468 139.836 60.962L141.105 57.9883C144.527 65.8854 146.351 70.0794 146.589 70.5703C146.695 70.7948 146.807 70.9701 146.926 71.0963C147.045 71.2226 147.249 71.3558 147.55 71.5172H143.426C143.672 71.3839 143.826 71.2436 143.889 71.0963C143.952 70.9491 143.952 70.7737 143.889 70.5703C143.868 70.5142 143.812 70.3669 143.714 70.1285C143.616 69.89 143.468 69.5394 143.279 69.0695C143.09 68.5996 142.921 68.2068 142.788 67.8772H138.061C137.388 69.4201 137.03 70.3108 136.988 70.5493C136.897 70.7737 136.89 70.9631 136.953 71.1174C137.016 71.2717 137.177 71.3979 137.43 71.5172H134.765L134.758 71.5101ZM138.44 66.8813H142.339L140.369 62.1612C139.499 64.3424 138.854 65.9134 138.44 66.8813Z" fill="white"/>
<path d="M154.094 71.5088C154.451 71.3265 154.634 71.0389 154.634 70.6391V59.2634C154.634 58.8426 154.458 58.548 154.094 58.3867H157.579C157.25 58.548 157.081 58.8426 157.081 59.2634V70.4077C157.145 70.4077 157.306 70.4217 157.579 70.4427C157.853 70.4638 158.126 70.4848 158.414 70.4918C158.617 70.5059 158.807 70.5129 158.996 70.5129H159.221C159.648 70.4989 159.971 70.4919 160.188 70.4778C160.406 70.4638 160.651 70.4498 160.918 70.4147C161.184 70.3867 161.388 70.3446 161.521 70.2955C161.654 70.2464 161.794 70.1763 161.956 70.0851C162.11 69.9939 162.243 69.8817 162.342 69.7554C162.44 69.6292 162.545 69.4679 162.643 69.2785L162.222 71.5018H154.101L154.094 71.5088Z" fill="white"/>
<path d="M168.867 60.2671V58.3945H179.436V60.2671C179.177 59.7622 178.875 59.5097 178.532 59.4956C177.36 59.4045 176.308 59.3624 175.369 59.3624V70.647C175.369 71.0327 175.537 71.3203 175.867 71.5166H172.416C172.746 71.3343 172.914 71.0467 172.914 70.647V59.3624C172.486 59.3624 172.016 59.3764 171.504 59.3974C170.992 59.4185 170.578 59.4395 170.277 59.4606L169.828 59.4956C169.442 59.5097 169.127 59.7692 168.867 60.2671Z" fill="white"/>
<path d="M184.641 58.3945H189.003C188.891 58.4366 188.814 58.4717 188.772 58.4857C188.729 58.5067 188.673 58.5348 188.596 58.5839C188.519 58.633 188.477 58.6751 188.47 58.7242C188.463 58.7733 188.449 58.8364 188.442 58.9135C188.435 58.9907 188.449 59.0889 188.498 59.2011C188.547 59.3133 188.61 59.4466 188.694 59.5868L191.388 64.3349L193.919 59.3624C194.011 59.2221 194.053 59.0889 194.053 58.9556C194.053 58.8925 194.046 58.8294 194.025 58.7592C193.947 58.5769 193.779 58.4577 193.513 58.3945H196.276C195.764 58.5558 195.336 58.9486 195.006 59.5728L191.921 65.443V70.654C191.921 70.9836 192.145 71.2782 192.601 71.5236H188.779C188.905 71.4465 189.01 71.3834 189.087 71.3202C189.171 71.2641 189.248 71.173 189.326 71.0537C189.403 70.9345 189.438 70.8013 189.438 70.661V65.5272L185.658 59.3413C185.517 59.1099 185.384 58.9276 185.244 58.8013C185.104 58.6751 184.907 58.5418 184.648 58.4086L184.641 58.3945Z" fill="white"/>
<path d="M49.5036 61.425C48.2552 61.7686 47.119 62.3367 46.0109 62.8908C44.2926 63.7534 43.0723 63.9638 41.9501 63.5991C41.0244 63.2976 40.0986 62.8417 39.1167 62.3578L38.9063 62.2526C37.3283 61.4741 35.2173 60.6886 32.8538 61.4811C31.6895 61.8738 30.5744 62.4349 29.4943 62.9749C27.8602 63.7955 26.5277 63.9638 25.2863 63.515C24.5569 63.2485 23.8275 62.8908 23.049 62.498L22.3897 62.1684C20.9941 61.4881 19.1285 60.7798 17.1016 61.3478C15.8603 61.6985 14.6469 62.1964 13.5038 62.8206C11.3647 64.0059 9.42196 64.0199 7.4021 62.8697C6.66569 62.4489 5.92226 62.1193 5.21391 61.7967C4.09176 61.2917 2.86442 61.1024 1.46875 61.2076L1.57395 62.5612C2.73116 62.47 3.74811 62.6243 4.65985 63.0381C5.34717 63.3466 6.05552 63.6623 6.73582 64.048C9.17648 65.4366 11.6031 65.4226 14.163 64.0059C15.215 63.4238 16.3302 62.9679 17.4663 62.6523C19.0514 62.2105 20.6154 62.8136 21.7866 63.3817L22.4529 63.7114C23.2594 64.1111 24.0169 64.4898 24.8164 64.7844C26.4365 65.3735 28.1127 65.1842 30.1045 64.1812C31.1846 63.6342 32.2085 63.1222 33.2886 62.7575C35.1752 62.1193 36.8865 62.7575 38.3102 63.4589L38.5206 63.5641C39.5445 64.069 40.5124 64.553 41.5363 64.8826C42.0273 65.0439 42.5253 65.121 43.0442 65.121C44.0963 65.121 45.2394 64.7844 46.6351 64.0831C47.6731 63.5641 48.7461 63.031 49.8683 62.7154C50.4504 62.5541 51.0465 62.5752 51.5725 62.5822L51.6076 61.2216C51.0185 61.2076 50.2751 61.1865 49.4966 61.4039L49.5036 61.425Z" fill="white"/>
<path d="M46.6559 69.6636C45.2042 70.3229 43.7033 71.0032 41.3257 70.4281C40.6104 70.2597 39.902 69.888 39.1516 69.5023L38.331 69.0885C36.76 68.31 34.649 67.5175 32.2784 68.317C31.1212 68.7098 30.0131 69.2638 28.919 69.8109C27.2849 70.6314 25.9523 70.7998 24.711 70.3509C23.9816 70.0844 23.2592 69.7267 22.4737 69.334L21.8144 69.0043C20.4188 68.324 18.5602 67.6157 16.5263 68.1838C15.2779 68.5345 14.0716 69.0324 12.9284 69.6566C11.0769 70.6735 8.01204 70.3018 6.23765 68.85L5.375 69.9021C7.57721 71.7115 11.2592 72.1323 13.5877 70.8489C14.6397 70.2668 15.7478 69.8109 16.891 69.4953C18.4831 69.0464 20.04 69.6566 21.2113 70.2247L21.8776 70.5543C22.6841 70.9541 23.4415 71.3328 24.2411 71.6273C25.8612 72.2165 27.5374 72.0271 29.5502 71.0172C30.6303 70.4772 31.6402 69.9652 32.7062 69.6075C34.5929 68.9693 36.2971 69.6075 37.7278 70.3088L38.5204 70.7086C39.3129 71.1154 40.1335 71.5362 41.0031 71.7466C41.7395 71.9219 42.4128 71.9991 43.03 71.9991C44.7904 71.9991 46.1019 71.4029 47.217 70.898L47.5887 70.7296L47.0346 69.4883L46.6559 69.6566V69.6636Z" fill="white"/>
<path d="M53.3931 28.5866L54.2978 28.4885L53.9471 27.6539C52.7268 24.7503 50.6789 21.8468 48.4065 19.7638C50.4264 16.9795 51.9553 13.578 52.0185 13.4307L52.3411 12.7153L51.5836 12.4979C51.4293 12.4558 48.0068 11.495 44.6474 11.2285C44.4159 8.28282 43.5252 5.13381 42.1576 2.49677L41.7368 1.69021L41.0845 2.32144C40.3131 3.06486 39.4574 3.73112 38.6299 4.36934C38.0057 4.86028 37.3674 5.36525 36.7573 5.90528C35.1652 3.73814 33.2365 1.85854 31.2377 0.575083L30.34 0L30.1997 1.05901C30.0384 2.28636 29.7719 3.49267 29.5194 4.66391C28.8953 7.52538 28.25 10.485 29.0846 13.7813C29.8771 16.9234 31.4131 19.2307 33.4049 20.2757C33.7696 20.4651 34.1483 20.6124 34.527 20.7036C31.7778 21.8117 29.274 23.551 27.2541 25.8234C25.2132 23.53 22.6884 21.7696 19.9041 20.6615C20.2337 20.5703 20.5633 20.4441 20.8859 20.2757C22.8848 19.2307 24.4137 16.9234 25.2062 13.7813C26.0338 10.485 25.3956 7.52538 24.7714 4.66391C24.5189 3.49267 24.2524 2.28636 24.0911 1.05901L23.9508 0L23.0531 0.575083C21.0472 1.85152 19.1186 3.73814 17.5335 5.90528C16.9234 5.36525 16.2851 4.85327 15.6609 4.36934C14.8334 3.72411 13.9777 3.06486 13.2133 2.32144L12.561 1.69021L12.1402 2.49677C10.7656 5.14083 9.8819 8.28983 9.65046 11.2285C6.29103 11.495 2.86148 12.4558 2.7142 12.4979L1.95675 12.7153L2.27936 13.4307C2.34949 13.585 3.87842 16.9795 5.89127 19.7638C3.61893 21.8538 1.571 24.7503 0.35067 27.6539L0 28.4885L0.904736 28.5866C1.96376 28.7059 3.02278 28.9373 4.04674 29.1617C4.88835 29.3441 5.75801 29.5194 6.63469 29.6457C6.12972 32.1565 6.01751 34.7094 6.36818 36.9186L6.5365 37.9706L7.42019 37.3744C8.45817 36.6801 9.53824 36.0629 10.5903 35.4738C13.1642 34.0291 15.8223 32.5282 17.7509 29.7228C19.5534 27.0998 20.2828 24.4768 19.7989 22.3237C19.7778 22.2185 19.7357 22.1273 19.7077 22.0221C22.2185 23.0741 24.4908 24.7152 26.3424 26.8193C23.8456 30.2138 22.471 34.4569 22.471 38.8262C22.471 43.1956 23.8175 47.3826 26.3354 50.8402C22.3167 53.8139 17.4143 54.7677 12.7644 53.4211C8.21972 52.1026 4.66392 48.7853 2.93161 44.2756C6.57858 42.5854 11.2004 42.3119 14.8754 43.5883C17.3652 44.458 19.2448 45.9448 20.3669 47.9156C16.222 49.15 11.9929 48.2803 8.66156 45.489L7.7919 46.527C11.6984 49.8092 16.72 50.6929 21.5662 48.9536L22.2606 48.7081L21.959 48.0348C20.7527 45.3768 18.4663 43.399 15.3383 42.3119C11.0742 40.8321 5.88425 41.2248 1.78842 43.3358L1.26944 43.6024L1.45879 44.1564C3.24721 49.3814 7.23784 53.2318 12.3997 54.7256C17.5265 56.2125 22.9409 55.1534 27.3383 51.8291C30.4312 54.1646 34.022 55.3849 37.669 55.3849C39.212 55.3849 40.7549 55.1675 42.2838 54.7256C47.4457 53.2318 51.4363 49.3744 53.2248 44.1564L53.4141 43.6024L52.8951 43.3358C48.7993 41.2248 43.6094 40.8321 39.3452 42.3119C36.2172 43.399 33.9239 45.3838 32.7246 48.0348L32.423 48.7081L33.1173 48.9536C37.9636 50.6929 42.9852 49.8092 46.8917 46.527L46.022 45.489C42.6906 48.2873 38.4686 49.15 34.3166 47.9156C35.4317 45.9448 37.3113 44.458 39.8081 43.5883C43.4901 42.3119 48.105 42.5854 51.7519 44.2756C50.0196 48.7853 46.4638 52.1026 41.9191 53.4211C37.1921 54.7887 32.2056 53.7858 28.1448 50.6999C30.5644 47.3335 31.904 43.1254 31.904 38.8262C31.904 34.527 30.5574 30.326 28.1238 26.9525C29.9332 24.8555 32.1565 23.2003 34.6252 22.1203C34.6042 22.1904 34.5831 22.2465 34.5621 22.3167C34.0782 24.4628 34.8076 27.0928 36.61 29.7158C38.5387 32.5212 41.1968 34.015 43.7707 35.4668C44.8227 36.0559 45.9098 36.6731 46.9408 37.3674L47.8244 37.9636L47.9928 36.9116C48.3434 34.7023 48.2382 32.1424 47.7262 29.6387C48.5959 29.5124 49.4656 29.3441 50.3072 29.1547C51.3311 28.9303 52.3832 28.6989 53.4492 28.5796L53.3931 28.5866ZM22.9058 2.31442C23.0601 3.21213 23.2565 4.08881 23.4388 4.94444C24.056 7.77786 24.6381 10.45 23.8877 13.4377C23.1934 16.201 21.9029 18.1928 20.2547 19.0554C19.9041 19.2378 19.5464 19.364 19.1887 19.4271C20.9911 17.6177 22.0642 14.4757 20.8228 10.5832C20.381 9.18756 19.6376 7.98125 18.5154 6.80299C19.7778 5.06367 21.3278 3.47864 22.9058 2.3074V2.31442ZM12.9327 3.91347C13.5499 4.45351 14.1881 4.95147 14.8123 5.43539C15.6399 6.07361 16.4184 6.68377 17.1268 7.35706L17.1548 7.3781C18.3611 8.53531 19.0905 9.65043 19.5253 11.004C20.5283 14.146 19.7989 16.6779 18.4733 18.1998C18.6767 16.0186 17.8421 13.592 15.2752 12.0981L15.1069 11.9929C14.9736 11.9088 14.8334 11.8246 14.6791 11.7475C13.7954 11.3337 12.5821 11.1373 10.983 11.1513C11.1934 8.72468 11.8807 6.16477 12.9257 3.90645L12.9327 3.91347ZM10.3027 12.54C12.007 12.4488 13.2904 12.5961 14.111 12.9818C14.2162 13.0309 14.3003 13.087 14.3915 13.1431L14.6019 13.2694C17.2039 14.7843 17.5476 17.5125 16.7831 19.4832L16.7059 19.5253V19.6796L16.6288 19.8339C15.6189 21.6153 13.7603 23.3336 10.478 22.0782L10.2396 21.994C10.1414 21.959 10.0502 21.9309 9.94502 21.8818C9.18056 21.5171 8.29686 20.6966 7.322 19.4271C5.77905 17.4143 4.44651 14.8333 3.84336 13.592C5.13382 13.2694 7.83398 12.6662 10.3027 12.533V12.54ZM4.31325 27.8292C3.54178 27.6609 2.75627 27.4855 1.94272 27.3593C3.09292 24.9397 4.80419 22.5832 6.6908 20.8228C7.63059 21.959 8.50727 22.7024 9.34888 23.1021C9.50317 23.1723 9.65045 23.2284 9.79773 23.2775L9.98009 23.3406C12.5961 24.3435 14.9316 23.8526 16.6498 22.0431C16.236 24.2453 14.5178 26.672 11.5651 27.8713C10.3167 28.3762 9.01223 28.5446 7.46227 28.3903C6.42428 28.2851 5.39331 28.0606 4.30623 27.8222L4.31325 27.8292ZM16.6078 28.9514C14.8544 31.4972 12.4488 32.8508 9.89592 34.2885C9.12444 34.7234 8.33895 35.1652 7.55344 35.6492C7.39214 33.8186 7.52539 31.7918 7.93918 29.7929C9.46109 29.8771 10.7936 29.6597 12.0841 29.1337C15.7451 27.6468 17.8 24.4558 18.0946 21.6714C18.2489 21.959 18.3681 22.2746 18.4453 22.6182C18.845 24.3926 18.1928 26.6439 16.6078 28.9443V28.9514ZM19.1606 20.8088C19.2799 20.7947 19.3991 20.7667 19.5253 20.7457L19.357 21.1875C19.2939 21.0613 19.2378 20.928 19.1606 20.8088ZM27.1419 49.697C24.9818 46.6041 23.7965 42.7537 23.7965 38.8332C23.7965 34.9127 24.9748 31.0834 27.1349 27.9835C29.295 31.0834 30.4803 34.9057 30.4803 38.8332C30.4803 42.7608 29.288 46.6251 27.1419 49.697ZM50.4334 13.592C49.8303 14.8333 48.4977 17.4143 46.9548 19.4271C45.9869 20.6895 45.1032 21.5171 44.3318 21.8818C44.2336 21.9309 44.1354 21.959 44.0372 21.994L43.7987 22.0782C40.5235 23.3336 38.6579 21.6153 37.648 19.8409L37.5428 19.6025V19.5183L37.4937 19.4902C36.7292 17.5195 37.0729 14.7913 39.6748 13.2694L39.8853 13.1431C39.9764 13.087 40.0606 13.0309 40.1658 12.9818C40.9864 12.5961 42.2698 12.4488 43.9811 12.54C46.4498 12.6662 49.143 13.2764 50.4404 13.599L50.4334 13.592ZM39.4574 5.43539C40.0816 4.95147 40.7199 4.45351 41.337 3.91347C42.382 6.16478 43.0693 8.73168 43.2797 11.1583C41.7368 11.1303 40.4674 11.3407 39.5837 11.7545C39.4294 11.8246 39.2891 11.9158 39.1559 11.9999L38.9946 12.0981C36.4347 13.592 35.6001 16.0186 35.8035 18.1998C34.4779 16.6709 33.7485 14.139 34.7514 11.004C35.1793 9.65043 35.9157 8.53531 37.122 7.3781L37.15 7.35706C37.8584 6.68377 38.6369 6.08061 39.4574 5.44239V5.43539ZM30.3961 13.4447C29.6457 10.457 30.2278 7.78488 30.845 4.95147C31.0343 4.09583 31.2237 3.21915 31.378 2.32144C32.956 3.49268 34.506 5.0707 35.7684 6.81703C34.6462 7.98827 33.9028 9.20158 33.461 10.5973C32.2196 14.4827 33.2927 17.6317 35.0951 19.4412C34.7374 19.378 34.3797 19.2518 34.0221 19.0694C32.3739 18.2068 31.0834 16.215 30.3891 13.4517L30.3961 13.4447ZM46.7233 35.6492C45.9378 35.1652 45.1523 34.7164 44.3809 34.2885C41.835 32.8578 39.4294 31.4972 37.676 28.9514C36.091 26.6439 35.4388 24.3996 35.8385 22.6252C35.9157 22.2816 36.0349 21.966 36.1892 21.6784C36.4838 24.4628 38.5317 27.6539 42.1997 29.1407C43.4901 29.6667 44.8227 29.8771 46.3446 29.8C46.7584 31.7988 46.8917 33.8257 46.7304 35.6562L46.7233 35.6492ZM46.8075 28.3973C45.2575 28.5516 43.946 28.3833 42.7046 27.8783C39.752 26.679 38.0337 24.2594 37.6199 22.0501C39.3382 23.8596 41.6737 24.3505 44.2897 23.3476L44.472 23.2845C44.6193 23.2354 44.7666 23.1863 44.9209 23.1092C45.7695 22.7094 46.6392 21.959 47.579 20.8298C49.4656 22.5832 51.1839 24.9467 52.327 27.3593C51.5205 27.4855 50.728 27.6609 49.9565 27.8292C48.8694 28.0677 47.8385 28.2921 46.8005 28.3973H46.8075Z" fill="white"/>
</svg>
