<svg width="39" height="48" viewBox="0 0 39 48" fill="none" xmlns="http://www.w3.org/2000/svg">
<path d="M25.6367 18.1759L25.6367 10.2505" stroke="#503637" stroke-width="1.25" stroke-miterlimit="10" stroke-linecap="round" stroke-linejoin="round"/>
<path d="M12.8633 12.2719L12.8633 10.2505" stroke="#503637" stroke-width="1.25" stroke-miterlimit="10" stroke-linecap="round" stroke-linejoin="round"/>
<path d="M12.8633 18.1757L12.8633 15.5142" stroke="#503637" stroke-width="1.25" stroke-miterlimit="10" stroke-linecap="round" stroke-linejoin="round"/>
<path d="M23.7572 17.7585L26.4381 18.3529C28.1236 18.7266 29.3262 20.2525 29.3262 22.0174L29.3262 26.3046L25.6624 26.3046L25.6624 34.9284L12.8392 34.9284L12.8392 26.3046L9.17547 26.3046L9.17547 22.0174C9.17547 20.2525 10.3781 18.7266 12.0635 18.3529L14.7444 17.7585" stroke="#503637" stroke-width="1.25" stroke-miterlimit="10" stroke-linecap="round" stroke-linejoin="round"/>
<path d="M2.97976 32.6384L9.17612 30.3304L9.17612 26.3044L12.8398 26.3044L12.8398 31.6431C12.8398 32.4313 12.3582 33.1352 11.6345 33.4047L4.23286 36.1618C3.28219 36.5159 2.23095 36.0142 1.88488 35.0413C1.53882 34.0683 2.029 32.9925 2.97976 32.6384Z" stroke="#503637" stroke-width="1.25" stroke-miterlimit="10" stroke-linecap="round" stroke-linejoin="round"/>
<path d="M35.5237 32.6389L29.3273 30.3309L29.3273 26.3049L25.6635 26.3049L25.6635 31.6436C25.6635 32.4317 26.1452 33.1357 26.8688 33.4052L34.2706 36.1623C35.2212 36.5164 36.2725 36.0147 36.6185 35.0418C36.9645 34.0688 36.4744 32.993 35.5237 32.6389Z" stroke="#503637" stroke-width="1.25" stroke-miterlimit="10" stroke-linecap="round" stroke-linejoin="round"/>
<path d="M17.6321 14.7932L17.6321 17.1188L14.745 17.7591C15.051 20.0247 16.9543 21.7756 19.2514 21.7756C21.5485 21.7756 23.4519 20.0247 23.7578 17.7591L20.8708 17.1188L20.8708 14.7932" stroke="#503637" stroke-width="1.25" stroke-miterlimit="10" stroke-linecap="round" stroke-linejoin="round"/>
<path d="M14.6963 7.47534L13.6888 7.47534C12.93 7.47534 12.3148 8.10483 12.3148 8.88143C12.3148 9.65793 12.9299 10.2875 13.6888 10.2875L14.6963 10.2875" stroke="#503637" stroke-width="1.25" stroke-miterlimit="10" stroke-linecap="round" stroke-linejoin="round"/>
<path d="M23.806 7.47534L24.8135 7.47534C25.5723 7.47534 26.1875 8.10483 26.1875 8.88143C26.1875 9.65793 25.5724 10.2875 24.8135 10.2875L23.806 10.2875" stroke="#503637" stroke-width="1.25" stroke-miterlimit="10" stroke-linecap="round" stroke-linejoin="round"/>
<path d="M32.2811 38.5276L34.9026 39.278C36.5239 39.7421 37.6445 41.2549 37.6445 42.978C37.6445 44.0387 37.2245 44.9994 36.5447 45.6942C35.8658 46.3899 34.927 46.8198 33.8906 46.8198L12.4548 46.8198" stroke="#503637" stroke-width="1.25" stroke-miterlimit="10" stroke-linecap="round" stroke-linejoin="round"/>
<path d="M29.2314 37.6539L25.6639 36.6321L25.6639 34.9146L12.8405 34.9146L12.8405 36.6321L3.60086 39.2779C2.78978 39.5104 2.10452 40.0042 1.62204 40.6554C1.13865 41.3076 0.858933 42.1164 0.858933 42.9779C0.858934 45.0994 2.53994 46.8197 4.61291 46.8197L9.2875 46.8197" stroke="#503637" stroke-width="1.25" stroke-miterlimit="10" stroke-linecap="round" stroke-linejoin="round"/>
<path d="M19.251 43.0634L10.8702 41.1865" stroke="#503637" stroke-width="1.25" stroke-miterlimit="10" stroke-linecap="round" stroke-linejoin="round"/>
<path d="M19.2511 43.0634L27.6318 41.1865" stroke="#503637" stroke-width="1.25" stroke-miterlimit="10" stroke-linecap="round" stroke-linejoin="round"/>
<path d="M19.2514 46.8203L19.2514 43.0637L22.7408 43.0637C23.7544 43.0637 24.5762 43.9046 24.5762 44.942C24.5762 45.9794 23.7545 46.8203 22.7408 46.8203L19.2514 46.8203Z" stroke="#503637" stroke-width="1.25" stroke-miterlimit="10" stroke-linecap="round" stroke-linejoin="round"/>
<path d="M14.6972 7.47534L14.6972 10.4352C14.6972 13.0095 16.7364 15.0964 19.2519 15.0964C21.7674 15.0964 23.8066 13.0095 23.8066 10.4352L23.8066 7.47534" stroke="#503637" stroke-width="1.25" stroke-miterlimit="10" stroke-linecap="round" stroke-linejoin="round"/>
<path d="M23.8066 8.88155C23.8066 8.88155 18.2818 8.56843 17.0451 5.98193L14.6972 8.35721" stroke="#503637" stroke-width="1.25" stroke-miterlimit="10" stroke-linecap="round" stroke-linejoin="round"/>
<path d="M12.8634 7.51281L12.8634 7.3279C12.8634 3.72404 15.7285 0.791993 19.2501 0.791993C22.7717 0.791992 25.6367 3.72404 25.6367 7.3279L25.6367 7.51272" stroke="#503637" stroke-width="1.25" stroke-miterlimit="10" stroke-linecap="round" stroke-linejoin="round"/>
</svg>
